<svg width="22" height="22" viewBox="0 0 22 22" fill="none" xmlns="http://www.w3.org/2000/svg">
<path id="Vector" fill-rule="evenodd" clip-rule="evenodd" d="M6.84745 1.37502C6.7444 1.37516 6.64271 1.39847 6.54989 1.44321C6.45707 1.48796 6.37549 1.553 6.31119 1.63352L2.1174 6.87508H8.24996C8.4323 6.87508 8.60717 6.94751 8.7361 7.07644C8.86504 7.20537 8.93747 7.38024 8.93747 7.56258C8.93747 8.1096 9.15477 8.63421 9.54157 9.02101C9.92837 9.40781 10.453 9.62511 11 9.62511C11.547 9.62511 12.0716 9.40781 12.4584 9.02101C12.8452 8.63421 13.0625 8.1096 13.0625 7.56258C13.0625 7.38024 13.1349 7.20537 13.2639 7.07644C13.3928 6.94751 13.5677 6.87508 13.75 6.87508H19.8826L15.6888 1.63352C15.6245 1.553 15.5429 1.48796 15.4501 1.44321C15.3573 1.39847 15.2556 1.37516 15.1525 1.37502H6.84745ZM20.5343 8.25009H14.3688C14.211 9.02717 13.7894 9.72581 13.1754 10.2276C12.5615 10.7294 11.7929 11.0036 11 11.0036C10.2071 11.0036 9.4385 10.7294 8.82454 10.2276C8.21059 9.72581 7.789 9.02717 7.63121 8.25009H1.46564L1.90564 11.7729C1.92648 11.9396 2.00764 12.0929 2.1338 12.2039C2.25996 12.3148 2.42239 12.3758 2.5904 12.3751H19.4123C19.5799 12.3751 19.7416 12.3139 19.8672 12.203C19.9928 12.0921 20.0736 11.9391 20.0943 11.7729L20.533 8.25009H20.5343ZM5.23731 0.774134C5.43063 0.532461 5.67586 0.337392 5.95483 0.203383C6.23379 0.0693751 6.53934 -0.000136511 6.84882 2.01268e-07H15.1512C15.4606 -0.000136511 15.7662 0.0693751 16.0452 0.203383C16.3241 0.337392 16.5694 0.532461 16.7627 0.774134L21.8502 7.13358C21.9074 7.20533 21.9496 7.28779 21.9744 7.37611C21.9992 7.46443 22.0061 7.55682 21.9946 7.64783L21.4584 11.9434C21.396 12.4424 21.1535 12.9014 20.7765 13.2341C20.3994 13.5668 19.9138 13.7503 19.411 13.7502H2.58903C2.08617 13.7503 1.60056 13.5668 1.22352 13.2341C0.84648 12.9014 0.603983 12.4424 0.541629 11.9434L0.00537266 7.64783C-0.00589731 7.55673 0.0011932 7.46428 0.0262259 7.37596C0.0512586 7.28764 0.0937265 7.20522 0.151124 7.13358L5.23868 0.774134H5.23731ZM0.17175 15.3589C0.236176 15.2856 0.315481 15.2268 0.404387 15.1865C0.493294 15.1462 0.589764 15.1253 0.68738 15.1252H8.24996C8.4323 15.1252 8.60717 15.1976 8.7361 15.3265C8.86504 15.4555 8.93747 15.6303 8.93747 15.8127C8.93747 16.3597 9.15477 16.8843 9.54157 17.2711C9.92837 17.6579 10.453 17.8752 11 17.8752C11.547 17.8752 12.0716 17.6579 12.4584 17.2711C12.8452 16.8843 13.0625 16.3597 13.0625 15.8127C13.0625 15.6303 13.1349 15.4555 13.2639 15.3265C13.3928 15.1976 13.5677 15.1252 13.75 15.1252H21.3126C21.4101 15.1252 21.5064 15.1459 21.5953 15.186C21.6841 15.2261 21.7634 15.2847 21.8279 15.3577C21.8924 15.4308 21.9406 15.5168 21.9693 15.6099C21.9981 15.703 22.0067 15.8012 21.9946 15.8979L21.4584 20.1935C21.396 20.6924 21.1535 21.1515 20.7765 21.4842C20.3994 21.8169 19.9138 22.0004 19.411 22.0002H2.58903C2.08617 22.0004 1.60056 21.8169 1.22352 21.4842C0.84648 21.1515 0.603983 20.6924 0.541629 20.1935L0.00537266 15.8979C-0.00679033 15.8012 0.00175391 15.703 0.0304385 15.6098C0.0591231 15.5167 0.107292 15.4307 0.17175 15.3575V15.3589ZM1.46564 16.5002L1.90564 20.023C1.92645 20.1895 2.00741 20.3426 2.13328 20.4535C2.25916 20.5644 2.42125 20.6255 2.58903 20.6252H19.411C19.5785 20.6252 19.7403 20.564 19.8658 20.4531C19.9914 20.3422 20.0722 20.1892 20.093 20.023L20.533 16.5002H14.3688C14.211 17.2773 13.7894 17.9759 13.1754 18.4777C12.5615 18.9795 11.7929 19.2537 11 19.2537C10.2071 19.2537 9.4385 18.9795 8.82454 18.4777C8.21059 17.9759 7.789 17.2773 7.63121 16.5002H1.46564Z" fill="white"/>
</svg>
