<svg width="1440" height="1024" viewBox="0 0 1440 1024" fill="none" xmlns="http://www.w3.org/2000/svg">
<path d="M1440.16 -0.508575H-47.2413V1026.13H1440.16V-0.508575Z" fill="#F2EEE6"/>
<path d="M-32.8562 879.181C-19.5056 873.911 -6.6889 867.653 5.59369 860.736C16.5412 856.455 26.6877 850.856 36.5671 844.268C135.896 793.868 236.827 736.225 300.375 624.556C308.653 610.062 295.569 591.617 283.02 595.238C222.675 611.381 165 638.721 112.131 676.6C131.09 643.991 148.712 610.392 165.534 576.134C200.78 504.986 247.24 405.176 189.031 331.39C181.288 321.508 169.807 324.143 163.665 334.684C127.085 397.27 90.5036 460.514 56.5931 525.738C53.389 495.102 42.7084 467.761 17.3421 452.938C-3.48486 440.751 -27.2488 445.361 -43.2695 466.113C-62.2276 491.151 -63.0285 528.371 -63.2955 560.321C-64.3637 643.991 -62.7616 727.66 -59.0233 811.329C-62.4946 823.845 -65.6986 836.362 -68.636 849.208C-69.1699 851.515 -69.4369 853.818 -69.4369 855.796C-99.3426 884.455 -130.583 910.806 -162.357 936.499C-149.007 908.829 -139.928 878.856 -138.059 847.56C-134.054 839.983 -134.588 833.066 -137.792 827.796C-138.326 811.329 -140.729 794.857 -145.536 778.055C-149.007 765.539 -163.425 755.989 -171.97 768.505C-195.2 801.445 -215.226 837.021 -232.047 874.571C-232.047 862.713 -232.582 851.186 -233.383 839.324C-233.65 837.021 -233.65 834.714 -233.917 832.077C-233.383 806.055 -234.184 780.033 -236.854 754.011C-238.456 737.21 -242.728 719.424 -249.67 703.941C-253.676 692.083 -258.482 680.556 -264.623 670.672C-269.429 645.968 -279.843 624.227 -300.67 612.04C-347.664 584.37 -375.166 640.369 -371.695 692.413C-366.89 766.528 -353.539 841.631 -339.921 914.098C-340.989 915.087 -342.324 916.735 -343.125 918.053C-351.936 910.477 -361.547 903.559 -371.427 897.631C-373.566 894.994 -375.701 892.361 -377.836 889.724C-392.254 872.268 -419.756 854.477 -437.379 873.252C-438.983 872.923 -440.319 872.593 -441.92 872.593C-456.605 870.62 -461.944 894.005 -453.935 905.866C-450.731 910.477 -447.526 914.757 -444.322 919.042C-436.848 936.828 -420.558 952.641 -409.078 963.18C-408.543 963.839 -408.008 964.169 -407.474 964.498C-376.767 998.426 -342.591 1027.74 -305.743 1051.79L-340.188 1079.79C-394.66 1104.82 -445.391 1142.05 -489.981 1190.47C-504.667 1206.61 -486.777 1230.32 -471.29 1221.76C-467.287 1225.06 -461.944 1225.71 -456.337 1221.1C-412.549 1185.52 -368.758 1149.95 -324.701 1114.38C-317.492 1111.08 -310.015 1108.12 -302.539 1105.15C-310.817 1131.5 -312.151 1159.5 -299.869 1188.49C-294.795 1200.68 -282.78 1201.01 -274.769 1193.43C-271.299 1190.14 -267.827 1186.51 -264.356 1182.89C-261.419 1183.22 -258.215 1182.56 -255.278 1180.58C-233.917 1163.46 -217.095 1141.39 -206.681 1112.4C-202.409 1114.05 -198.137 1116.02 -193.865 1118C-188.792 1124.91 -183.718 1131.5 -178.645 1138.09C-149.273 1187.17 -113.227 1229.67 -71.84 1263.92C-43.0026 1287.64 63.8024 1375.26 77.153 1292.25C89.1685 1216.82 9.33182 1155.88 -34.1913 1125.9C-64.0968 1105.15 -95.3372 1088.35 -127.646 1074.85C-64.6307 1072.21 -1.61572 1069.9 61.1323 1067.27C101.451 1065.62 141.77 1063.98 181.822 1062.66C211.193 1061.34 249.109 1065.62 272.874 1038.94C291.03 1018.52 289.962 985.91 272.072 966.146C250.444 942.098 214.664 938.147 186.895 934.191C116.671 923.982 43.2424 935.18 -25.9138 950.334C-79.0493 961.861 -131.384 978.333 -182.383 999.086C-134.855 960.872 -86.7928 922.993 -42.2016 879.511C-39.5316 880.499 -36.3272 880.499 -32.8562 879.181Z" fill="#65ACE4"/>
<path d="M1406.66 997.121C1393.11 998.44 1379.21 998 1365.67 994.924C1363.17 984.816 1360.68 974.707 1358.9 966.357C1348.56 918.453 1336.08 870.989 1321.83 824.403C1294.03 732.551 1259.09 644.654 1217.04 561.591C1197.43 522.917 1166.78 475.013 1124.36 497.427C1088.01 516.324 1079.09 583.566 1076.6 626.196C1071.25 710.137 1094.06 790.124 1128.28 861.32C1090.14 839.346 1049.87 823.524 1009.95 808.582C976.085 795.837 942.936 781.773 908.005 772.984C876.639 765.073 834.223 752.328 803.57 770.786C751.53 801.99 797.51 874.505 818.54 910.982C854.897 973.828 900.877 1028.32 951.134 1073.59C955.411 1077.55 960.045 1081.5 964.679 1085.46C988.56 1115.78 1016.01 1142.59 1048.08 1157.09C1057.35 1161.49 1066.62 1164.56 1075.89 1166.76C1060.2 1186.1 1045.59 1206.32 1031.69 1227.41C1014.58 1253.34 995.332 1281.03 988.203 1313.99C981.075 1346.51 984.639 1382.99 1003.53 1408.48C1014.58 1423.42 1030.62 1431.77 1047.02 1429.13C1062.34 1426.5 1075.53 1415.95 1088.36 1406.28C1116.52 1384.75 1142.54 1359.7 1166.78 1332.01C1191.73 1309.59 1215.61 1285.86 1238.78 1260.37C1267.29 1229.17 1294.38 1196.21 1320.4 1162.37C1331.81 1147.86 1345.35 1128.09 1361.04 1117.54C1373.51 1119.74 1386.34 1120.18 1399.17 1119.3C1404.16 1118.86 1409.51 1117.54 1413.79 1114.46C1419.49 1112.71 1424.48 1108.31 1428.04 1103.48C1435.17 1093.37 1435.89 1081.5 1432.68 1069.64C1434.82 1060.41 1436.96 1051.62 1438.74 1042.39C1445.15 1014.26 1428.04 994.924 1406.66 997.121Z" fill="#FFC34D"/>
<path d="M1482.58 896.04C1479.37 885.492 1474.38 875.823 1467.61 867.473C1460.84 852.97 1451.57 841.104 1440.16 831.435C1437.31 826.601 1434.46 822.206 1431.25 818.251C1414.14 796.716 1390.62 783.531 1366.03 784.85C1341.07 786.168 1319.33 795.837 1299.37 814.295C1289.39 823.525 1280.84 834.951 1273.71 848.136C1264.08 860.002 1255.89 874.505 1250.18 890.326C1240.2 919.332 1241.27 951.415 1249.83 980.421C1253.39 1000.64 1263.02 1017.78 1275.85 1030.96C1280.84 1037.11 1286.18 1042.83 1291.89 1047.66C1299.37 1054.25 1307.93 1059.09 1316.84 1062.6C1329.31 1069.64 1342.86 1074.47 1356.76 1075.79C1365.31 1076.67 1373.87 1075.79 1382.06 1073.59C1382.42 1073.59 1382.42 1073.59 1382.42 1073.59C1397.75 1079.74 1413.79 1076.23 1428.05 1068.32C1431.97 1066.12 1435.53 1063.48 1439.09 1060.41C1440.88 1059.53 1442.3 1058.65 1443.73 1057.33C1456.56 1048.1 1465.47 1034.04 1468.68 1016.46C1470.46 1011.18 1471.89 1005.91 1472.96 1000.64C1473.31 999.319 1473.31 998.44 1473.67 997.121C1474.38 995.803 1474.74 994.484 1475.45 993.166C1488.64 961.962 1492.56 928.561 1482.58 896.04Z" fill="#FE4F51"/>
<path d="M1380.28 830.117C1372.8 816.493 1362.82 805.506 1351.05 799.353C1358.18 783.971 1363.53 767.27 1366.38 749.691C1368.88 736.506 1358.9 722.003 1347.49 729.475C1330.74 740.462 1317.91 760.239 1313.27 782.652C1298.66 777.818 1283.69 779.576 1269.07 785.729C1257.67 790.563 1260.52 812.537 1270.86 816.493C1280.84 820.448 1291.17 822.645 1301.87 823.085C1297.23 841.104 1296.88 861.32 1301.51 879.779C1303.29 886.81 1307.21 892.524 1313.63 892.963C1319.33 893.403 1325.75 889.008 1327.17 881.976L1333.95 849.894C1334.66 846.817 1335.37 843.741 1335.73 840.664C1337.15 842.422 1338.94 843.741 1340.72 845.059C1348.56 851.212 1357.83 854.728 1367.09 854.728C1376.36 854.288 1386.7 841.543 1380.28 830.117Z" fill="#004D3A"/>
<path d="M200.838 121.229C188.007 113.319 173.036 112 159.135 109.363C158.422 109.363 157.353 108.924 156.64 108.924C155.214 108.484 154.145 108.045 152.72 107.605C138.106 102.771 122.779 102.331 107.808 101.013C104.957 100.574 102.106 100.134 98.5413 99.6945C108.521 90.9048 118.145 81.6757 127.412 71.5675C135.967 61.8988 144.165 51.7907 151.293 40.8036C157.709 30.6954 163.769 19.7083 165.551 6.5238C167.333 -7.10023 162.343 -19.8453 152.006 -25.5586C143.095 -30.3929 132.046 -29.9535 123.135 -26.8771C113.155 -23.3612 103.887 -16.3295 96.4023 -7.10028C92.4815 -4.90285 87.4918 -8.41869 84.2839 -11.0556C78.2245 -15.8899 72.8776 -21.6033 66.8182 -25.1192C60.4023 -29.0745 52.9175 -33.0299 45.7888 -33.4694C37.2344 -33.9089 30.8183 -28.1955 27.254 -18.9663C14.7787 12.6766 23.3331 48.7143 35.8083 78.1598C38.6597 84.3126 41.5112 90.9048 44.3627 97.0576C27.6104 85.1915 11.5707 72.4465 -4.46886 58.8224C-11.2411 49.1538 -17.3005 38.1667 -22.2906 26.3006C-25.4986 18.8294 -34.053 18.8293 -37.6175 25.4216C-38.3303 26.7401 -39.3997 28.498 -40.1125 29.8165C-42.6076 30.2559 -45.4587 32.0139 -46.8844 34.6508C-47.5973 35.9692 -47.9541 37.2877 -48.3105 38.6062C-48.667 39.0456 -48.667 39.0457 -49.0234 39.4852C-54.0135 43.88 -51.8749 53.1091 -47.9541 56.625C-26.9243 76.4018 -5.5382 96.1786 17.9865 111.561C9.07566 113.319 0.164757 116.395 -8.74612 118.592C-19.7956 121.669 -31.2015 124.745 -42.2508 127.822C-53.6567 131.337 -62.9244 137.49 -69.3403 150.235C-74.3303 160.343 -80.033 172.649 -78.9637 184.955C-77.8943 198.139 -69.6963 207.368 -60.0726 212.203C-51.1617 217.037 -41.1818 216.158 -31.9144 219.234C-21.5778 222.75 -13.0233 231.54 -8.03322 242.527C-9.10252 247.801 -10.1718 253.075 -10.1718 258.349C-10.5282 278.565 -1.61725 300.979 15.4917 306.252C32.6006 311.966 50.0657 298.781 58.6201 280.323C67.531 260.107 68.9568 235.495 69.3132 213.082C69.6696 196.381 70.0264 180.12 70.0264 163.42C72.5215 168.694 76.0858 173.089 79.6502 177.044C79.6502 178.362 80.0066 180.12 80.7195 181.439C90.3433 201.655 100.68 220.992 112.799 239.011C122.779 254.393 135.967 274.17 154.145 269.336C170.541 264.941 173.749 245.164 174.106 227.585C174.462 219.674 174.819 212.642 177.67 205.61C178.026 205.171 178.383 204.292 178.383 203.852C182.66 202.973 187.293 200.776 191.214 198.579C203.689 191.986 215.808 180.56 219.016 163.42C221.868 145.401 213.67 128.701 200.838 121.229Z" fill="#004D3A"/>
<path d="M1005.31 -237.83C975.728 -199.155 966.817 -139.825 983.214 -87.9656C992.124 -59.8385 1004.96 -35.6668 1022.78 -15.89C1022.78 -15.4505 1022.78 -15.0109 1022.78 -14.5714C1022.42 -13.253 1022.42 -11.9346 1022.06 -11.4951C1021 -4.90286 1019.21 1.25 1017.79 7.4028C1017.79 7.4028 1017.79 7.40271 1017.79 7.84219C1016.01 11.7976 1014.58 15.753 1012.8 19.7083C1004.96 37.2878 1007.09 63.6568 1019.93 78.5992C1033.83 94.4207 1050.22 95.7392 1066.62 87.3889C1066.98 87.3889 1067.33 86.9495 1067.33 86.9495C1069.47 86.0705 1071.61 85.1915 1073.39 84.3126C1074.82 83.8731 1076.6 82.9941 1078.03 82.5546C1078.03 87.8284 1078.03 93.1022 1078.03 98.3761C1078.38 123.866 1095.85 148.917 1116.88 148.477C1128.64 148.477 1139.33 141.885 1146.46 131.777C1148.96 133.535 1151.81 134.853 1154.3 135.732C1182.1 143.643 1205.99 134.414 1227.02 112.879C1228.08 111.561 1229.51 110.242 1230.58 109.363C1231.65 108.484 1232.72 108.045 1233.79 107.166C1236.28 115.077 1240.2 122.108 1246.26 127.822C1259.09 140.567 1274.78 141.006 1288.68 133.095C1309 121.669 1324.32 94.8602 1328.24 67.1726C1332.88 32.4534 1324.32 -0.947418 1305.79 -28.1955C1304.36 -30.3929 1302.58 -32.5903 1300.8 -34.7877C1300.44 -35.6667 1300.44 -36.9852 1300.44 -37.8642C1296.52 -62.4754 1292.24 -88.4051 1281.19 -109.94C1268.01 -135.43 1247.69 -153.449 1224.16 -158.283C1222.38 -158.723 1220.6 -158.723 1218.82 -159.162C1197.07 -200.913 1166.42 -239.148 1131.13 -260.683C1108.32 -274.307 1084.8 -280.46 1060.2 -274.747C1039.53 -271.231 1019.57 -256.728 1005.31 -237.83Z" fill="#0D9900"/>
<path d="M1176.05 70.689C1177.83 94.4211 1182.1 119.472 1190.3 141.446C1165.71 173.089 1160.01 224.948 1179.25 267.578C1204.92 323.832 1260.52 337.456 1303.65 311.966C1310.78 307.571 1317.19 302.298 1323.25 296.145C1325.04 304.495 1327.17 312.845 1329.31 321.195C1338.94 354.596 1356.05 383.602 1384.92 392.831C1410.22 400.742 1433.39 391.074 1456.2 379.207C1487.93 362.507 1518.94 332.622 1534.26 293.507C1536.4 288.234 1538.18 282.521 1539.61 276.807C1547.45 275.928 1554.94 273.292 1562.06 268.897C1564.92 267.139 1567.41 265.381 1569.91 263.183C1570.98 262.304 1572.05 261.425 1573.11 260.546C1599.13 235.935 1608.76 189.789 1596.28 150.236C1581.31 102.771 1547.09 78.5997 1509.31 66.7336C1497.19 -18.9661 1491.49 -105.545 1491.85 -192.123C1491.85 -201.792 1488.64 -208.384 1484.01 -212.779C1483.65 -214.097 1483.29 -215.416 1482.58 -216.295C1476.52 -227.722 1467.25 -235.633 1456.56 -236.072C1446.58 -237.83 1435.89 -233.435 1428.76 -225.524C1419.49 -214.976 1417.35 -198.276 1414.86 -182.894C1395.61 -127.519 1371.73 -75.22 1343.93 -25.9979C1323.97 -28.1953 1304.01 -30.8322 1284.05 -33.0297C1259.09 -36.1061 1233.79 -40.501 1211.33 -24.6795C1184.6 -5.78165 1173.19 32.8931 1176.05 70.689ZM1464.76 57.5044C1459.77 57.0649 1454.78 56.625 1449.79 56.1855C1449.07 54.4276 1447.65 52.2306 1446.58 50.4727C1448.72 22.3455 1451.57 -6.22104 1454.78 -34.3481C1457.27 -3.58412 1460.48 26.7403 1464.76 57.5044ZM1418.78 -94.1179C1414.86 -64.6724 1411.29 -34.7876 1408.08 -5.34215C1399.89 -11.4949 1391.33 -15.8897 1382.42 -18.9661C1395.25 -43.1378 1407.37 -68.1883 1418.78 -94.1179Z" fill="#004D3A"/>
</svg>
