<svg width="30" height="27" viewBox="0 0 30 27" fill="none" xmlns="http://www.w3.org/2000/svg">
<g id="Send">
<path id="Vector" d="M3.05608 11.6703C2.69106 11.5726 2.36864 11.3665 2.13609 11.0823C1.90354 10.798 1.7731 10.4505 1.76389 10.0908C1.75468 9.73106 1.86719 9.37798 2.08492 9.08334C2.30265 8.7887 2.61415 8.568 2.97374 8.4536L26.9253 1.04187C27.0822 0.993343 27.2502 0.986861 27.4107 1.02314C27.5712 1.05942 27.7181 1.13704 27.8351 1.24747C27.9521 1.35789 28.0347 1.49682 28.0737 1.64894C28.1128 1.80106 28.1069 1.96047 28.0566 2.10959L20.2509 24.8464C20.1309 25.1881 19.8984 25.4843 19.5877 25.6914C19.277 25.8984 18.9045 26.0054 18.5249 25.9965C18.1453 25.9876 17.7788 25.8634 17.4792 25.6421C17.1796 25.4208 16.9628 25.1141 16.8606 24.7671L14.4814 15.3887C14.2967 14.6604 13.7193 14.0971 12.9867 13.9304L3.05608 11.6703Z" stroke="#004D3A" stroke-width="2" stroke-linecap="round" stroke-linejoin="round"/>
<path id="Vector_2" d="M27.8352 1.24561L14.1798 14.202" stroke="#004D3A" stroke-width="2" stroke-linecap="round" stroke-linejoin="round"/>
</g>
</svg>
