<svg width="25" height="26" viewBox="0 0 25 26" fill="none" xmlns="http://www.w3.org/2000/svg">
<g id="Support">
<path id="Vector" d="M5.19778 18.8628H4.46748C3.69273 18.8628 2.9497 18.5355 2.40187 17.9529C1.85403 17.3703 1.54626 16.5801 1.54626 15.7562V12.6497C1.54626 11.8257 1.85403 11.0356 2.40187 10.453C2.9497 9.87039 3.69273 9.54309 4.46748 9.54309H5.19778C5.39147 9.54309 5.57723 9.62492 5.71419 9.77056C5.85115 9.91621 5.92809 10.1138 5.92809 10.3197V18.0861C5.92809 18.2921 5.85115 18.4897 5.71419 18.6353C5.57723 18.7809 5.39147 18.8628 5.19778 18.8628Z" fill="#004D3A" stroke="#004D3A" stroke-width="2" stroke-linecap="round" stroke-linejoin="round"/>
<path id="Vector_2" d="M20.5342 18.8628H19.8039C19.6102 18.8628 19.4245 18.7809 19.2875 18.6353C19.1506 18.4897 19.0736 18.2921 19.0736 18.0861V10.3197C19.0736 10.1138 19.1506 9.91621 19.2875 9.77056C19.4245 9.62492 19.6102 9.54309 19.8039 9.54309H20.5342C21.309 9.54309 22.052 9.87039 22.5998 10.453C23.1477 11.0356 23.4554 11.8257 23.4554 12.6497V15.7562C23.4554 16.5801 23.1477 17.3703 22.5998 17.9529C22.052 18.5355 21.309 18.8628 20.5342 18.8628Z" fill="#004D3A" stroke="#004D3A" stroke-width="2" stroke-linecap="round" stroke-linejoin="round"/>
<path id="Vector_3" d="M4.46783 9.54304C4.46783 7.27729 5.3142 5.10433 6.82075 3.5022C8.32729 1.90007 10.3706 1 12.5012 1V1C14.6318 1 16.6751 1.90007 18.1816 3.5022C19.6882 5.10433 20.5345 7.27729 20.5345 9.54304" stroke="#004D3A" stroke-width="2" stroke-linecap="round" stroke-linejoin="round"/>
<path id="Vector_4" d="M15.4224 22.746H17.6133C18.388 22.746 19.1311 22.4187 19.6789 21.8361C20.2267 21.2535 20.5345 20.4633 20.5345 19.6394V18.8628" stroke="#004D3A" stroke-width="2" stroke-linecap="round" stroke-linejoin="round"/>
<path id="Vector_5" d="M13.9619 24.2993H12.5013C12.1139 24.2993 11.7424 24.1357 11.4685 23.8444C11.1945 23.5531 11.0406 23.158 11.0406 22.746C11.0406 22.3341 11.1945 21.939 11.4685 21.6477C11.7424 21.3564 12.1139 21.1927 12.5013 21.1927H13.9619C14.3492 21.1927 14.7208 21.3564 14.9947 21.6477C15.2686 21.939 15.4225 22.3341 15.4225 22.746C15.4225 23.158 15.2686 23.5531 14.9947 23.8444C14.7208 24.1357 14.3492 24.2993 13.9619 24.2993Z" stroke="#004D3A" stroke-width="2" stroke-linecap="round" stroke-linejoin="round"/>
</g>
</svg>
