<svg width="21" height="19" viewBox="0 0 21 19" fill="none" xmlns="http://www.w3.org/2000/svg">
<path id="Telegram" d="M1.28747 8.00981C1.28747 8.00981 10.5753 3.9724 13.7964 2.55072C15.0313 1.9821 19.2188 0.162355 19.2188 0.162355C19.2188 0.162355 21.1516 -0.633716 20.9905 1.29968C20.9367 2.09583 20.5073 4.88219 20.0778 7.89608C19.4335 12.161 18.7356 16.824 18.7356 16.824C18.7356 16.824 18.6282 18.1319 17.7156 18.3594C16.8029 18.5868 15.2996 17.5633 15.0313 17.3358C14.8165 17.1652 11.0047 14.6062 9.6089 13.3552C9.23308 13.014 8.80361 12.3317 9.66254 11.5355C11.5953 9.65893 13.9038 7.32746 15.2996 5.84897C15.9439 5.16654 16.5881 3.57432 13.9038 5.50771C10.0921 8.29416 6.33402 10.91 6.33402 10.91C6.33402 10.91 5.47501 11.4786 3.86443 10.9668C2.25378 10.4551 0.374744 9.77265 0.374744 9.77265C0.374744 9.77265 -0.91366 8.91968 1.28747 8.00981Z" fill="#004D3A"/>
</svg>
