<svg viewBox="0 0 23 22" fill="none" xmlns="http://www.w3.org/2000/svg">
<g id="Graph">
<path id="Vector" d="M1 21H21.9302" stroke="white" stroke-width="2" stroke-linecap="round" stroke-linejoin="round"/>
<path id="Vector_2" d="M5.25888 10.7675H2.46818C2.28315 10.7675 2.10569 10.841 1.97485 10.9718C1.84401 11.1026 1.77051 11.2801 1.77051 11.4651V21H5.95655V11.4651C5.95655 11.2801 5.88305 11.1026 5.75221 10.9718C5.62137 10.841 5.44391 10.7675 5.25888 10.7675Z" stroke="white" stroke-width="2" stroke-linecap="round" stroke-linejoin="round"/>
<path id="Vector_3" d="M12.8604 1H10.0697C9.88471 1 9.70725 1.07351 9.57641 1.20434C9.44558 1.33518 9.37207 1.51264 9.37207 1.69767V21H13.5581V1.69767C13.5581 1.51264 13.4846 1.33518 13.3538 1.20434C13.2229 1.07351 13.0455 1 12.8604 1Z" stroke="white" stroke-width="2" stroke-linecap="round" stroke-linejoin="round"/>
<path id="Vector_4" d="M20.462 5.18604H17.6713C17.4863 5.18604 17.3088 5.25954 17.178 5.39038C17.0471 5.52122 16.9736 5.69867 16.9736 5.88371V21H21.1597V5.88371C21.1597 5.69867 21.0862 5.52122 20.9553 5.39038C20.8245 5.25954 20.647 5.18604 20.462 5.18604Z" stroke="white" stroke-width="2" stroke-linecap="round" stroke-linejoin="round"/>
</g>
</svg>
