<svg width="157" height="109" viewBox="0 0 157 109" fill="none" xmlns="http://www.w3.org/2000/svg">
<g id="ic_logo-white 1">
<path id="Vector" d="M20.2507 60.0756H26.1873V41.7222L39.6143 60.0756H46.4229L32.0107 40.3867L46.0231 20.8696H39.2146L26.1798 39.0843V20.868H20.2432V39.0829L7.20839 20.868H0.399816L14.4122 40.3852L0 60.0741H6.80859L20.2356 41.7207L20.2507 60.0756Z" fill="white"/>
<path id="Vector_2" d="M108.848 48.6024H122.689V60.0763H128.623V31.9839H122.686V42.9996H108.845V31.9839H102.908V60.0763H108.845L108.848 48.6024Z" fill="white"/>
<path id="Vector_3" d="M118.637 71.4422H128.479V93.9329H134.415V71.4422H144.256V65.8409H118.637V71.4422Z" fill="white"/>
<path id="Vector_4" d="M67.491 43.4111V60.0763H73.4245V31.9839H72.0097L53.2767 48.4802V31.9839H47.3401V60.0763H48.5727L67.491 43.4111Z" fill="white"/>
<path id="Vector_5" d="M46.1425 65.8409H44.6022L33.2194 84.4744L21.8365 65.8409H20.2962V65.901L15.1667 93.9378H21.0083L23.5971 79.3618L32.3322 93.9378H34.0989L42.834 79.3618L45.4229 93.9378H51.2614L46.132 65.901L46.1425 65.8409Z" fill="white"/>
<path id="Vector_6" d="M76.8565 68.4532C75.6054 67.2597 74.1286 66.3271 72.5132 65.7098C70.8972 65.092 69.1745 64.8023 67.4457 64.8568C63.455 64.8568 59.6281 66.4404 56.8065 69.2597C53.9849 72.079 52.3997 75.9026 52.3997 79.8896C52.3997 83.8767 53.9849 87.7003 56.8065 90.5196C59.6281 93.3383 63.455 94.9224 67.4457 94.9224C69.1751 94.9831 70.8997 94.6959 72.5163 94.078C74.1329 93.4601 75.609 92.5244 76.8565 91.3261V93.9347H82.793V65.8409H76.8565V68.4532ZM67.7032 89.3677C65.8217 89.3916 63.9757 88.8558 62.3996 87.8289C60.8235 86.802 59.5887 85.3298 58.8521 83.5999C58.1154 81.87 57.9103 79.9601 58.2628 78.1132C58.6153 76.2663 59.5094 74.5658 60.8315 73.2284C62.1537 71.8904 63.8439 70.9755 65.688 70.6001C67.5315 70.2248 69.4456 70.4054 71.1861 71.1194C72.9272 71.8334 74.4162 73.0484 75.4637 74.6099C76.5118 76.172 77.0711 78.0097 77.0705 79.8896C77.0785 81.1266 76.8424 82.3532 76.3756 83.4989C75.9089 84.6446 75.2208 85.6875 74.3512 86.5674C73.481 87.4474 72.4464 88.1479 71.3056 88.628C70.1643 89.1087 68.9402 89.3598 67.702 89.3677H67.7032Z" fill="white"/>
<path id="Vector_7" d="M156.999 50.1369C156.998 47.5705 156.003 45.1042 154.221 43.2552C152.44 41.4061 150.012 40.3179 147.445 40.2185V40.1989H140.302V31.9839H134.365V40.1989V45.8002V54.4735V60.0748H147.448V60.0552C150.014 59.9551 152.442 58.8665 154.222 57.0175C156.003 55.1685 156.998 52.7027 156.999 50.1369ZM146.74 54.4735H140.302V45.8002H146.747C147.898 45.8002 149.002 46.2571 149.815 47.0704C150.63 47.8837 151.087 48.9867 151.087 50.1369C151.087 51.287 150.63 52.39 149.815 53.2033C149.002 54.0166 147.898 54.4735 146.747 54.4735H146.74Z" fill="white"/>
<path id="Vector_8" d="M103.882 64.8574C102.152 64.7999 100.429 65.0883 98.8125 65.7055C97.1965 66.3234 95.7198 67.2579 94.4705 68.4538V65.8421H88.5339V107.574H94.4705V91.3248C95.7247 92.5146 97.2014 93.4448 98.8168 94.0621C100.432 94.6793 102.153 94.9714 103.882 94.9218C107.872 94.9218 111.699 93.3376 114.521 90.5183C117.342 87.6996 118.928 83.8755 118.928 79.889C118.928 75.9019 117.342 72.0784 114.521 69.259C111.699 66.4397 107.872 64.8562 103.882 64.8562V64.8574ZM103.624 89.3683C101.742 89.3922 99.8962 88.857 98.3201 87.8295C96.7439 86.8025 95.5088 85.3304 94.7722 83.6005C94.0357 81.8706 93.8309 79.9606 94.1829 78.1138C94.5355 76.2669 95.4297 74.567 96.7519 73.229C98.0741 71.891 99.7643 70.9761 101.608 70.6007C103.452 70.2254 105.366 70.406 107.107 71.12C108.847 71.834 110.336 73.0496 111.384 74.6111C112.432 76.1726 112.991 78.0103 112.991 79.8902C113.007 82.388 112.029 84.7903 110.272 86.5674C108.515 88.3451 106.124 89.3524 103.624 89.3683Z" fill="white"/>
<path id="Vector_9" d="M99.1817 52.1747C99.1615 50.8304 98.7628 49.519 98.0312 48.3905C97.2996 47.2621 96.2643 46.3623 95.0451 45.7941C96.1104 45.1452 96.9935 44.2358 97.6099 43.1516C98.2262 42.0674 98.5556 40.8442 98.5678 39.5974C98.5678 34.6879 94.0026 31.0055 87.8562 31.0055C82.4508 31.0055 78.0002 34.3337 77.0104 38.0614L82.3195 39.4994C82.7311 37.9649 84.5476 36.4169 87.8562 36.4169C91.2342 36.4169 92.7686 38.0614 92.7686 39.9034C92.7686 41.7454 91.2342 43.0929 88.1623 43.0929H84.5218V48.4922H87.855C91.2324 48.4922 93.3807 49.7192 93.3807 51.8672C93.3807 53.7076 91.8469 55.8089 87.855 55.8089C86.4715 55.867 85.1087 55.4639 83.9797 54.663C82.8513 53.8621 82.0215 52.7088 81.621 51.3848L76.5774 53.0942C77.2974 55.4911 78.7993 57.5785 80.844 59.0236C82.8887 60.4686 85.359 61.1884 87.8605 61.068C95.2303 61.068 99.1817 56.7706 99.1817 52.1747Z" fill="white"/>
<path id="Vector_10" d="M151.341 65.1453C150.875 65.1355 150.413 65.2188 149.98 65.3902C149.547 65.5611 149.154 65.8171 148.821 66.1422C148.488 66.468 148.225 66.8562 148.044 67.2849C147.864 67.7135 147.771 68.1734 147.771 68.6388C147.771 69.1036 147.864 69.5641 148.044 69.9927C148.225 70.4208 148.488 70.8096 148.821 71.1348C149.154 71.46 149.547 71.7159 149.98 71.8874C150.413 72.0582 150.875 72.1415 151.341 72.1317C152.255 72.1127 153.126 71.7367 153.766 71.0834C154.406 70.4306 154.765 69.5525 154.765 68.6388C154.765 67.7246 154.406 66.8471 153.766 66.1937C153.126 65.5409 152.255 65.1643 151.341 65.1453ZM151.341 71.4759C150.782 71.4759 150.236 71.3105 149.771 71.0007C149.307 70.6908 148.945 70.2499 148.731 69.7343C148.518 69.2187 148.462 68.6511 148.57 68.1042C148.68 67.5568 148.948 67.054 149.343 66.6591C149.739 66.2647 150.242 65.9959 150.789 65.8869C151.338 65.7779 151.905 65.8336 152.421 66.0473C152.938 66.261 153.379 66.6229 153.689 67.0865C153.999 67.5507 154.165 68.0963 154.165 68.6541C154.158 69.4 153.858 70.1134 153.33 70.6394C152.801 71.166 152.087 71.4636 151.341 71.4685V71.4759Z" fill="white"/>
<path id="Vector_11" d="M152.942 67.8647C152.942 67.2695 152.516 66.6755 151.462 66.6755H149.965V70.5144H150.765V69.0705H151.208L152.246 70.5144H153.165L152.043 68.9847C152.3 68.9321 152.53 68.7918 152.695 68.5873C152.859 68.3822 152.946 68.1268 152.942 67.8647ZM151.343 68.4765H150.764V67.3038H151.359C151.963 67.3038 152.091 67.6057 152.091 67.8996C152.091 68.2732 151.869 68.4765 151.343 68.4765Z" fill="white"/>
<path id="Vector_12" d="M87.5969 24.6569C87.5969 24.6569 87.3902 24.8332 86.6371 24.8332C85.8846 24.8332 85.5706 24.063 85.4301 22.8993C85.1241 19.8043 84.9788 16.6955 84.9959 13.5854C84.9959 9.09958 84.6838 3.58871 87.6195 3.29478C87.7097 2.77989 87.9832 2.31513 88.3904 1.98667C88.7977 1.65822 89.3098 1.48836 89.8329 1.50858C91.777 1.50858 91.409 5.09003 91.4151 13.5854C91.4151 22.1773 90.5099 25.4166 89.2037 25.4166C87.8968 25.4166 87.5969 24.6569 87.5969 24.6569Z" fill="#3F9E37"/>
<path id="Vector_13" d="M96.5269 25.7308C95.8793 24.5898 96.8875 21.9247 101.187 17.6409C105.486 13.357 107.837 11.5557 108.881 12.8701C109.076 13.1602 109.184 13.5003 109.192 13.8497C109.199 14.1993 109.106 14.5436 108.923 14.8418C109.305 15.1591 109.573 15.5923 109.685 16.0755C109.798 16.5588 109.75 17.0655 109.548 17.5188C108.884 19.2387 104.72 21.8464 102.806 24.2129C100.891 26.5795 99.3823 28.5541 97.7896 27.621C97.575 27.4759 97.4137 27.2651 97.3297 27.0205C97.2457 26.7758 97.2432 26.5105 97.3229 26.2644C97.0108 26.1688 96.7336 25.9832 96.5269 25.7308Z" fill="#3F9E37"/>
<path id="Vector_14" d="M67.2744 13.8456C69.5902 10.9892 72.9215 15.9559 72.9215 15.9559C72.9215 15.9559 75.1692 16.4443 77.9148 20.478C80.6605 24.5116 79.7406 26.0822 79.7406 26.0822C79.732 26.3885 79.648 26.688 79.4947 26.9535C79.342 27.2191 79.1249 27.4423 78.8642 27.6031C78.5674 27.7619 78.2374 27.848 77.9014 27.8546C77.5653 27.8611 77.2323 27.7879 76.9299 27.6409C76.9299 27.6409 74.2683 25.1914 71.0565 21.9536C67.8448 18.7159 65.7461 15.7298 67.2744 13.8456Z" fill="#3F9E37"/>
</g>
</svg>
