<svg width="14" height="4" viewBox="0 0 14 4" fill="none" xmlns="http://www.w3.org/2000/svg">
<path id="Vector" d="M10.5 1.75C10.5 1.28587 10.6844 0.840752 11.0126 0.512563C11.3408 0.184375 11.7859 -9.67827e-08 12.25 -7.64949e-08C12.7141 -5.62072e-08 13.1592 0.184375 13.4874 0.512563C13.8156 0.840752 14 1.28587 14 1.75C14 2.21413 13.8156 2.65925 13.4874 2.98744C13.1592 3.31563 12.7141 3.5 12.25 3.5C11.7859 3.5 11.3408 3.31563 11.0126 2.98744C10.6844 2.65925 10.5 2.21413 10.5 1.75ZM5.25 1.75C5.25 1.28587 5.43437 0.840752 5.76256 0.512563C6.09075 0.184374 6.53587 -3.26267e-07 7 -3.0598e-07C7.46413 -2.85692e-07 7.90925 0.184375 8.23744 0.512563C8.56563 0.840752 8.75 1.28587 8.75 1.75C8.75 2.21413 8.56563 2.65925 8.23744 2.98744C7.90925 3.31562 7.46413 3.5 7 3.5C6.53587 3.5 6.09075 3.31562 5.76256 2.98744C5.43437 2.65925 5.25 2.21413 5.25 1.75ZM-7.64949e-08 1.75C-5.62072e-08 1.28587 0.184375 0.840752 0.512563 0.512563C0.840752 0.184374 1.28587 -5.55752e-07 1.75 -5.35465e-07C2.21413 -5.15177e-07 2.65925 0.184374 2.98744 0.512563C3.31563 0.840752 3.5 1.28587 3.5 1.75C3.5 2.21413 3.31563 2.65925 2.98744 2.98744C2.65925 3.31562 2.21413 3.5 1.75 3.5C1.28587 3.5 0.840752 3.31562 0.512563 2.98744C0.184375 2.65925 -9.67827e-08 2.21413 -7.64949e-08 1.75Z" fill="#003129"/>
</svg>
